<?xml version="1.0" standalone="no"?><!DOCTYPE svg PUBLIC "-//W3C//DTD SVG 1.1//EN" "http://www.w3.org/Graphics/SVG/1.1/DTD/svg11.dtd"><svg t="1757551995824" class="icon" viewBox="0 0 1024 1024" version="1.1" xmlns="http://www.w3.org/2000/svg" p-id="5809" xmlns:xlink="http://www.w3.org/1999/xlink" width="200" height="200"><path d="M865.92 158.08a47.936 47.936 0 0 0-67.84 0l-49.024 48.96A793.984 793.984 0 0 1 512 64a872.064 872.064 0 0 1-384 192c0 182.656 21.632 344.064 99.072 473.088L158.08 798.08a48 48 0 1 0 67.84 67.84l640-640a47.936 47.936 0 0 0 0-67.84z" p-id="5810" fill="#1296db"></path><path d="M348.672 867.328A653.248 653.248 0 0 0 512 960c297.984-119.168 373.888-349.44 382.912-638.912z" p-id="5811" fill="#1296db"></path></svg>